<svg width="17" height="15" viewBox="0 0 17 15" fill="none" xmlns="http://www.w3.org/2000/svg">
<path d="M4.82294 0.963106V0.963113H4.82027C2.43426 0.963113 0.5 2.89734 0.5 5.28334C0.5 6.29731 0.937952 7.33862 1.65762 8.3584C2.37492 9.37482 3.34498 10.3311 4.342 11.1644C6.27126 12.7768 8.24174 13.8794 8.49995 14.0199C8.7564 13.8794 10.7272 12.7616 12.6571 11.141C13.6546 10.3034 14.6251 9.34465 15.3428 8.33062C16.0632 7.31265 16.5 6.27982 16.5 5.28334C16.5 2.89734 14.5658 0.963113 12.1798 0.963113V0.963148L12.1739 0.963078C10.9044 0.948093 9.69599 1.50641 8.88454 2.48269L8.50253 2.9423L8.11757 2.48516C7.29969 1.51395 6.09265 0.95632 4.82294 0.963106Z" fill="white" stroke="white"/>
</svg>
